<svg
      height="25"
      version="1.1"
      width="133"
      xmlns="http://www.w3.org/2000/svg"
      viewBox="0 0 133 30"
    >
      <defs></defs>
      <g>
        <g transform="matrix(1,0,0,1,0,0)">
          <path
            d="M11.09-13.25C7.73-14.01 6.15-14.67 6.15-16.26C6.15-17.65 7.41-18.66 9.70-18.66C11.79-18.66 14.54-18.00 16.51-17.17L18.35-20.79C16.16-21.74 13.18-22.59 9.79-22.59C4.69-22.59 1.55-19.80 1.55-15.88C1.55-11.47 5.26-10.17 9.85-9.13C13.12-8.37 14.61-7.70 14.61-6.18C14.61-4.53 13.15-3.64 10.71-3.64C7.92-3.64 5.86-3.93 2.92-5.36L1.27-1.84C4.82-0.06 6.75 0.29 10.55 0.29C15.75 0.29 19.20-2.25 19.20-6.56C19.20-10.65 15.91-12.17 11.09-13.25ZM34.89-5.83C34.03-4.53 32.61-3.71 31.02-3.71C28.23-3.71 25.95-5.93 25.95-8.62C25.95-11.34 28.23-13.56 31.02-13.56C32.61-13.56 34.03-12.74 34.89-11.47L37.74-14.10C36.19-16.19 33.78-17.52 31.02-17.52C25.82-17.52 21.61-13.56 21.61-8.62C21.61-3.71 25.82 0.25 31.02 0.25C33.68 0.25 36.12-1.08 37.68-3.20ZM45.15-17.21L40.72-17.21L40.72 0L45.15 0L45.15-8.30C45.15-10.55 46.36-12.80 49.53-12.80C50.45-12.80 51.65-12.55 51.65-12.55L51.65-17.33C51.30-17.46 50.89-17.52 50.57-17.52C48.13-17.49 46.33-16.41 45.15-14.80ZM66.61-17.21L66.61-16.13C65.15-16.98 63.37-17.55 61.57-17.55C56.18-17.55 53.01-13.25 53.01-8.65C53.01-4.09 56.18 0.25 61.57 0.25C63.47 0.25 65.18-0.32 66.61-1.27L66.61 0L71.01 0L71.01-17.21ZM66.61-5.16C65.53-4.25 64.04-3.71 62.36-3.71C59.25-3.71 57.26-6.05 57.26-8.65C57.26-11.22 59.22-13.56 62.36-13.56C64.01-13.56 65.53-12.99 66.61-12.07ZM84.38-17.52C82.58-17.52 80.80-17.02 79.38-16.19L79.38-17.21L74.97-17.21L74.97 5.55L79.38 5.55L79.38-1.05C80.80-0.22 82.54 0.25 84.38 0.25C89.17 0.25 93.10-3.33 93.10-8.62C93.10-14.01 89.17-17.52 84.38-17.52ZM83.59-3.71C81.91-3.71 80.42-4.25 79.38-5.16L79.38-12.07C80.45-12.99 81.94-13.56 83.59-13.56C86.54-13.56 88.75-11.44 88.75-8.62C88.75-5.70 86.54-3.71 83.59-3.71ZM96.42 0L100.83 0L100.83-17.21L96.42-17.21ZM98.61-19.08C100.00-19.08 101.11-20.22 101.11-21.64C101.11-23.07 100.00-24.24 98.61-24.24C97.22-24.24 96.07-23.07 96.07-21.64C96.07-20.22 97.22-19.08 98.61-19.08ZM115.21-23.51C114.99-23.58 113.63-24.11 111.41-24.11C108.50-24.11 106.06-22.62 106.06-18.32L106.06-17.21L103.65-17.21L103.65-13.56L106.06-13.56L106.06-1.62C106.06 1.71 105.42 2.22 102.70 2.22L102.70 5.74C103.27 5.86 104.06 5.99 105.04 5.99C108.40 5.99 110.46 3.99 110.46 0.57L110.46-13.56L115.09-13.56L115.09-17.21L110.46-17.21L110.46-17.46C110.46-19.27 110.81-20.37 113.41-20.37C114.14-20.37 114.71-20.28 115.21-20.22ZM129.88-17.21L125.45-5.51L125.13-5.51L120.60-17.21L115.97-17.21L122.69 0L123.07 0C122.09 2.00 119.97 2.60 117.59 2.60L117.11 2.60L116.58 5.93C117.05 5.96 117.56 5.96 118.13 5.96C121.74 5.96 125.80 4.82 127.32 0.92L134.42-17.21Z"
            transform="translate(-1.26747437092264, 24.239999771118164)" 
            fill="white"
          ></path>
        </g>
      </g>
    </svg>